<svg width="40" height="40" viewBox="0 0 40 40" fill="none" xmlns="http://www.w3.org/2000/svg">
<path fill-rule="evenodd" clip-rule="evenodd" d="M18.577 0.0502651C13.8087 0.393458 9.28354 2.47062 5.87478 5.88087C-0.0314747 11.7897 -1.65058 20.6604 1.78737 28.2752C2.09003 28.9455 2.73236 30.1432 3.09474 30.7129C3.19155 30.8651 3.06179 31.1877 1.6299 34.3539C0.765751 36.2646 0.0406088 37.9336 0.018381 38.0628C-0.0950277 38.7229 0.328709 39.5265 0.948583 39.8267C1.71035 40.1956 2.35347 40.0665 8.02054 38.4073C9.32971 38.024 10.4663 37.7104 10.5464 37.7104C10.6264 37.7104 10.9811 37.8559 11.3345 38.0336C13.1444 38.9441 15.5123 39.6332 17.7716 39.907C18.9108 40.045 21.3348 40.0265 22.5067 39.8707C24.7647 39.5707 26.7039 38.9843 28.7289 37.9893C30.8503 36.9468 32.5167 35.7617 34.1296 34.148C39.6288 28.6463 41.4426 20.5283 38.8113 13.1941C38.6506 12.7464 38.246 11.8288 37.9122 11.1549C35.9222 7.13806 32.7874 4.02545 28.7311 2.03856C25.5645 0.487498 22.0536 -0.199985 18.577 0.0502651ZM22.3502 3.6182C24.1487 3.87738 25.5597 4.31485 27.2419 5.13474C30.6101 6.77631 33.2348 9.40221 34.8754 12.7716C36.0463 15.1764 36.5353 17.3099 36.5353 20.0144C36.5353 22.7189 36.0463 24.8524 34.8754 27.2573C33.2362 30.6238 30.607 33.2542 27.2419 34.8941C24.8401 36.0645 22.7094 36.5535 20.0022 36.5556C17.2207 36.5578 15.1246 36.0577 12.5185 34.7704C11.4446 34.2399 11.1107 34.1091 10.8357 34.1108C10.6471 34.1119 9.22515 34.4617 7.67585 34.888C6.12656 35.3143 4.85073 35.6547 4.84056 35.6446C4.83046 35.6345 5.27924 34.6187 5.83776 33.3874C7.15084 30.4929 7.14254 30.6049 6.15309 29.0972C4.83915 27.0953 3.94636 24.728 3.59588 22.316C3.41743 21.0883 3.41939 18.8867 3.59995 17.7045C3.88891 15.8123 4.31038 14.4525 5.12897 12.7716C6.44323 10.0728 8.34973 7.89375 10.8841 6.19376C11.7759 5.59554 13.5393 4.71168 14.5263 4.36809C15.7812 3.93133 17.6007 3.5623 18.9847 3.46387C19.7119 3.41219 21.4846 3.49347 22.3502 3.6182ZM12.5831 11.1706C11.9342 11.495 11.0928 12.3982 10.7231 13.1671C10.1902 14.2755 10.1076 15.4285 10.457 16.8817C11.6537 21.8596 18.52 27.9999 24.0669 29.0525C24.8845 29.2077 26.1515 29.209 26.8033 29.0553C28.4183 28.6744 29.8427 27.1497 29.9283 25.7102C29.9702 25.0054 29.734 24.5105 29.0503 23.8706C28.1254 23.005 26.6247 22.3598 25.4819 22.3365C24.6465 22.3194 24.4323 22.4744 23.6068 23.6928C22.9297 24.6923 22.7497 24.8401 22.3118 24.7558C22.0041 24.6964 20.6588 24.0452 19.963 23.6188C18.3137 22.6079 16.6041 20.8753 15.5811 19.1779C15.1696 18.4952 15.2047 18.336 15.967 17.4305C16.1663 17.1936 16.4388 16.7793 16.5724 16.5097C16.7985 16.0538 16.8126 15.977 16.7738 15.4116C16.6916 14.2118 15.9861 12.5874 15.1849 11.753C14.3677 10.9023 13.5059 10.7093 12.5831 11.1706Z" fill="#39AE41"/>
</svg>
